<svg width="18" height="11" viewBox="0 0 18 11" fill="none" xmlns="http://www.w3.org/2000/svg">
<path fill-rule="evenodd" clip-rule="evenodd" d="M16.9438 0H15.9438C15.3916 0 14.9438 0.447715 14.9438 1V9.66667C14.9438 10.219 15.3916 10.6667 15.9438 10.6667H16.9438C17.4961 10.6667 17.9438 10.219 17.9438 9.66667V1C17.9438 0.447715 17.4961 0 16.9438 0ZM11.2772 2.33333H12.2772C12.8295 2.33333 13.2772 2.78105 13.2772 3.33333V9.66667C13.2772 10.219 12.8295 10.6667 12.2772 10.6667H11.2772C10.7249 10.6667 10.2772 10.219 10.2772 9.66667V3.33333C10.2772 2.78105 10.7249 2.33333 11.2772 2.33333ZM7.61051 4.66667H6.61051C6.05823 4.66667 5.61051 5.11438 5.61051 5.66667V9.66667C5.61051 10.219 6.05823 10.6667 6.61051 10.6667H7.61051C8.1628 10.6667 8.61051 10.219 8.61051 9.66667V5.66667C8.61051 5.11438 8.1628 4.66667 7.61051 4.66667ZM2.94385 6.66667H1.94385C1.39156 6.66667 0.943848 7.11438 0.943848 7.66667V9.66667C0.943848 10.219 1.39156 10.6667 1.94385 10.6667H2.94385C3.49613 10.6667 3.94385 10.219 3.94385 9.66667V7.66667C3.94385 7.11438 3.49613 6.66667 2.94385 6.66667Z" fill="black"/>
</svg>
